G04 #@! TF.GenerationSoftware,KiCad,Pcbnew,9.0.5*
G04 #@! TF.CreationDate,2025-11-08T09:58:55-03:00*
G04 #@! TF.ProjectId,discipline-pcb,64697363-6970-46c6-996e-652d7063622e,rev?*
G04 #@! TF.SameCoordinates,Original*
G04 #@! TF.FileFunction,Copper,L3,Inr*
G04 #@! TF.FilePolarity,Positive*
%FSLAX46Y46*%
G04 Gerber Fmt 4.6, Leading zero omitted, Abs format (unit mm)*
G04 Created by KiCad (PCBNEW 9.0.5) date 2025-11-08 09:58:55*
%MOMM*%
%LPD*%
G01*
G04 APERTURE LIST*
G04 Aperture macros list*
%AMRoundRect*
0 Rectangle with rounded corners*
0 $1 Rounding radius*
0 $2 $3 $4 $5 $6 $7 $8 $9 X,Y pos of 4 corners*
0 Add a 4 corners polygon primitive as box body*
4,1,4,$2,$3,$4,$5,$6,$7,$8,$9,$2,$3,0*
0 Add four circle primitives for the rounded corners*
1,1,$1+$1,$2,$3*
1,1,$1+$1,$4,$5*
1,1,$1+$1,$6,$7*
1,1,$1+$1,$8,$9*
0 Add four rect primitives between the rounded corners*
20,1,$1+$1,$2,$3,$4,$5,0*
20,1,$1+$1,$4,$5,$6,$7,0*
20,1,$1+$1,$6,$7,$8,$9,0*
20,1,$1+$1,$8,$9,$2,$3,0*%
G04 Aperture macros list end*
G04 #@! TA.AperFunction,ComponentPad*
%ADD10C,2.200000*%
G04 #@! TD*
G04 #@! TA.AperFunction,ComponentPad*
%ADD11C,4.400000*%
G04 #@! TD*
G04 #@! TA.AperFunction,ComponentPad*
%ADD12R,1.600000X1.600000*%
G04 #@! TD*
G04 #@! TA.AperFunction,ComponentPad*
%ADD13O,1.600000X1.600000*%
G04 #@! TD*
G04 #@! TA.AperFunction,ComponentPad*
%ADD14RoundRect,0.250000X-0.625000X0.350000X-0.625000X-0.350000X0.625000X-0.350000X0.625000X0.350000X0*%
G04 #@! TD*
G04 #@! TA.AperFunction,ComponentPad*
%ADD15O,1.750000X1.200000*%
G04 #@! TD*
G04 #@! TA.AperFunction,ComponentPad*
%ADD16R,1.270000X1.270000*%
G04 #@! TD*
G04 #@! TA.AperFunction,ComponentPad*
%ADD17C,1.270000*%
G04 #@! TD*
G04 #@! TA.AperFunction,ComponentPad*
%ADD18C,1.800000*%
G04 #@! TD*
G04 #@! TA.AperFunction,ComponentPad*
%ADD19RoundRect,0.450000X-0.450000X0.450000X-0.450000X-0.450000X0.450000X-0.450000X0.450000X0.450000X0*%
G04 #@! TD*
G04 #@! TA.AperFunction,ComponentPad*
%ADD20O,4.340000X1.800000*%
G04 #@! TD*
G04 #@! TA.AperFunction,ViaPad*
%ADD21C,0.800000*%
G04 #@! TD*
G04 #@! TA.AperFunction,ViaPad*
%ADD22C,0.600000*%
G04 #@! TD*
G04 APERTURE END LIST*
D10*
X180975250Y-168433750D03*
X187325250Y-165893750D03*
X316706250Y-92233750D03*
X323056250Y-89693750D03*
X288171528Y-168423620D03*
X294521528Y-165883620D03*
X65881250Y-89693750D03*
X59531250Y-92233750D03*
X84931250Y-89693750D03*
X78581250Y-92233750D03*
X103981250Y-89693750D03*
X97631250Y-92233750D03*
X123031250Y-89693750D03*
X116681250Y-92233750D03*
X142081250Y-89693750D03*
X135731250Y-92233750D03*
X161131250Y-89693750D03*
X154781250Y-92233750D03*
X180181250Y-89693750D03*
X173831250Y-92233750D03*
X199231250Y-89693750D03*
X192881250Y-92233750D03*
X218281250Y-89693750D03*
X211931250Y-92233750D03*
X237331250Y-89693750D03*
X230981250Y-92233750D03*
X256381250Y-89693750D03*
X250031250Y-92233750D03*
X275431250Y-89693750D03*
X269081250Y-92233750D03*
X294481250Y-89693750D03*
X288131250Y-92233750D03*
X351631250Y-89693750D03*
X345281250Y-92233750D03*
X94456250Y-108743750D03*
X88106250Y-111283750D03*
X113506250Y-108743750D03*
X107156250Y-111283750D03*
X132556250Y-108743750D03*
X126206250Y-111283750D03*
X151606250Y-108743750D03*
X145256250Y-111283750D03*
X170656250Y-108743750D03*
X164306250Y-111283750D03*
X189706250Y-108743750D03*
X183356250Y-111283750D03*
X208756250Y-108743750D03*
X202406250Y-111283750D03*
X227806250Y-108743750D03*
X221456250Y-111283750D03*
X246856250Y-108743750D03*
X240506250Y-111283750D03*
X265906250Y-108743750D03*
X259556250Y-111283750D03*
X284956250Y-108743750D03*
X278606250Y-111283750D03*
X304006250Y-108743750D03*
X297656250Y-111283750D03*
X351631250Y-108743750D03*
X345281250Y-111283750D03*
X99218750Y-127793750D03*
X92868750Y-130333750D03*
X118268750Y-127793750D03*
X111918750Y-130333750D03*
X137318750Y-127793750D03*
X130968750Y-130333750D03*
X156368250Y-127793750D03*
X150018250Y-130333750D03*
X175418250Y-127793750D03*
X169068250Y-130333750D03*
X194468250Y-127793750D03*
X188118250Y-130333750D03*
X213518250Y-127793750D03*
X207168250Y-130333750D03*
X232568250Y-127793750D03*
X226218250Y-130333750D03*
X251618250Y-127793750D03*
X245268250Y-130333750D03*
X270668250Y-127793750D03*
X264318250Y-130333750D03*
X289718250Y-127793750D03*
X283368250Y-130333750D03*
X351631250Y-127793750D03*
X345281250Y-130333750D03*
X108743750Y-146843750D03*
X102393750Y-149383750D03*
X127793750Y-146843750D03*
X121443750Y-149383750D03*
X146843750Y-146843750D03*
X140493750Y-149383750D03*
X165894250Y-146843750D03*
X159544250Y-149383750D03*
X184944250Y-146843750D03*
X178594250Y-149383750D03*
X203994250Y-146843750D03*
X197644250Y-149383750D03*
X223044250Y-146843750D03*
X216694250Y-149383750D03*
X242094250Y-146843750D03*
X235744250Y-149383750D03*
X261144250Y-146843750D03*
X254794250Y-149383750D03*
X280194250Y-146843750D03*
X273844250Y-149383750D03*
X332581250Y-146843750D03*
X326231250Y-149383750D03*
X351631250Y-146843750D03*
X345281250Y-149383750D03*
X313531250Y-165893750D03*
X307181250Y-168433750D03*
X332581250Y-165893750D03*
X326231250Y-168433750D03*
X351631250Y-165893750D03*
X345281250Y-168433750D03*
X327818250Y-108743750D03*
X321468250Y-111283750D03*
X73025050Y-127783620D03*
X66675050Y-130323620D03*
X320675250Y-127793750D03*
X314325250Y-130333750D03*
X77787450Y-146843750D03*
X71437450Y-149383750D03*
X306387250Y-146843750D03*
X300037250Y-149383750D03*
X68262450Y-165883620D03*
X61912450Y-168423620D03*
X92075050Y-165893750D03*
X85725050Y-168433750D03*
X115887450Y-165883620D03*
X109537450Y-168423620D03*
D11*
X57766382Y-80444750D03*
X57766382Y-61694750D03*
X354660309Y-61694750D03*
X354660309Y-80444750D03*
X96565888Y-161146960D03*
X315860803Y-161146960D03*
X113754723Y-104302994D03*
X298671968Y-104302994D03*
X206213345Y-104302994D03*
X206213345Y-166958110D03*
D12*
X85786525Y-72436199D03*
D13*
X85786525Y-77516199D03*
D12*
X88955988Y-67475612D03*
D13*
X88955988Y-72555612D03*
D12*
X101633840Y-67475612D03*
D13*
X101633840Y-72555612D03*
D12*
X114311692Y-67475612D03*
D13*
X114311692Y-72555612D03*
D12*
X126989544Y-67475612D03*
D13*
X126989544Y-72555612D03*
D12*
X139667396Y-67475612D03*
D13*
X139667396Y-72555612D03*
D12*
X152345248Y-67475612D03*
D13*
X152345248Y-72555612D03*
D12*
X165023100Y-67475612D03*
D13*
X165023100Y-72555612D03*
D12*
X177700952Y-67475612D03*
D13*
X177700952Y-72555612D03*
D12*
X190378804Y-67475612D03*
D13*
X190378804Y-72555612D03*
D12*
X203056656Y-67475612D03*
D13*
X203056656Y-72555612D03*
D12*
X215734508Y-67475612D03*
D13*
X215734508Y-72555612D03*
D12*
X228342376Y-67475612D03*
D13*
X228342376Y-72555612D03*
D12*
X275541929Y-72436199D03*
D13*
X275541929Y-77516199D03*
D12*
X66769747Y-69129141D03*
D13*
X66769747Y-74209141D03*
D12*
X82617062Y-70782670D03*
D13*
X82617062Y-75862670D03*
D12*
X92125451Y-69129141D03*
D13*
X92125451Y-74209141D03*
D12*
X104803303Y-69129141D03*
D13*
X104803303Y-74209141D03*
D12*
X117481155Y-69129141D03*
D13*
X117481155Y-74209141D03*
D12*
X130159007Y-69129141D03*
D13*
X130159007Y-74209141D03*
D12*
X142836859Y-69129141D03*
D13*
X142836859Y-74209141D03*
D12*
X155514711Y-69129141D03*
D13*
X155514711Y-74209141D03*
D12*
X168192563Y-69129141D03*
D13*
X168192563Y-74209141D03*
D12*
X180870415Y-69129141D03*
D13*
X180870415Y-74209141D03*
D12*
X193548267Y-69129141D03*
D13*
X193548267Y-74209141D03*
D12*
X206226119Y-69129141D03*
D13*
X206226119Y-74209141D03*
D12*
X218886475Y-69129141D03*
D13*
X218886475Y-74209141D03*
D12*
X231493149Y-69129141D03*
D13*
X231493149Y-74209141D03*
D12*
X272453205Y-70782670D03*
D13*
X272453205Y-75862670D03*
D12*
X69939210Y-70782670D03*
D13*
X69939210Y-75862670D03*
D12*
X79447599Y-69129141D03*
D13*
X79447599Y-74209141D03*
D12*
X95294914Y-70782670D03*
D13*
X95294914Y-75862670D03*
D12*
X107972766Y-70782670D03*
D13*
X107972766Y-75862670D03*
D12*
X120650618Y-70782670D03*
D13*
X120650618Y-75862670D03*
D12*
X133328470Y-70782670D03*
D13*
X133328470Y-75862670D03*
D12*
X146006322Y-70782670D03*
D13*
X146006322Y-75862670D03*
D12*
X158684174Y-70782670D03*
D13*
X158684174Y-75862670D03*
D12*
X171362026Y-70782670D03*
D13*
X171362026Y-75862670D03*
D12*
X184039878Y-70782670D03*
D13*
X184039878Y-75862670D03*
D12*
X196717730Y-70782670D03*
D13*
X196717730Y-75862670D03*
D12*
X209395582Y-70782670D03*
D13*
X209395582Y-75862670D03*
D12*
X234643922Y-70782670D03*
D13*
X234643922Y-75862670D03*
D12*
X269364481Y-69129141D03*
D13*
X269364481Y-74209141D03*
D12*
X73108673Y-72436199D03*
D13*
X73108673Y-77516199D03*
D12*
X98464377Y-72436199D03*
D13*
X98464377Y-77516199D03*
D12*
X111142229Y-72436199D03*
D13*
X111142229Y-77516199D03*
D12*
X123820081Y-72436199D03*
D13*
X123820081Y-77516199D03*
D12*
X136497933Y-72436199D03*
D13*
X136497933Y-77516199D03*
D12*
X149175785Y-72436199D03*
D13*
X149175785Y-77516199D03*
D12*
X161853637Y-72436199D03*
D13*
X161853637Y-77516199D03*
D12*
X174531489Y-72436199D03*
D13*
X174531489Y-77516199D03*
D12*
X187209341Y-72436199D03*
D13*
X187209341Y-77516199D03*
D12*
X199887193Y-72436199D03*
D13*
X199887193Y-77516199D03*
D12*
X212565045Y-72436199D03*
D13*
X212565045Y-77516199D03*
D12*
X222038442Y-70782670D03*
D13*
X222038442Y-75862670D03*
D12*
X237794695Y-72436199D03*
D13*
X237794695Y-77516199D03*
D12*
X266089606Y-67475612D03*
D13*
X266089606Y-72555612D03*
D12*
X259788058Y-70782670D03*
D13*
X259788058Y-75862670D03*
D12*
X76278136Y-67475612D03*
D13*
X76278136Y-72555612D03*
D12*
X256637284Y-69129141D03*
D13*
X256637284Y-74209141D03*
D12*
X253486511Y-67475612D03*
D13*
X253486511Y-72555612D03*
D12*
X250335738Y-72436199D03*
D13*
X250335738Y-77516199D03*
D12*
X225190409Y-72436199D03*
D13*
X225190409Y-77516199D03*
D12*
X244096241Y-69129141D03*
D13*
X244096241Y-74209141D03*
D12*
X240945468Y-67475612D03*
D13*
X240945468Y-72555612D03*
D12*
X262938832Y-72436199D03*
D13*
X262938832Y-77516199D03*
D12*
X247184965Y-70782670D03*
D13*
X247184965Y-75862670D03*
D10*
X275466206Y-165893750D03*
X269116206Y-168433750D03*
X70643750Y-108743750D03*
X64293750Y-111283750D03*
D11*
X206213345Y-80444750D03*
X206213345Y-61694750D03*
D14*
X340500000Y-69500000D03*
D15*
X340500000Y-71500000D03*
D16*
X350000000Y-81500000D03*
D17*
X347500000Y-81500000D03*
X345000000Y-81500000D03*
D18*
X345040000Y-62760000D03*
X342500000Y-62760000D03*
D19*
X339960000Y-62760000D03*
X337420000Y-62760000D03*
D18*
X334880000Y-62760000D03*
X332340000Y-62760000D03*
X329800000Y-62760000D03*
X327260000Y-62760000D03*
X324720000Y-62760000D03*
X322180000Y-62760000D03*
X319640000Y-62760000D03*
X317100000Y-62760000D03*
D20*
X346310000Y-78000000D03*
D19*
X342500000Y-78000000D03*
D18*
X339960000Y-78000000D03*
X337420000Y-78000000D03*
X334880000Y-78000000D03*
X332340000Y-78000000D03*
X329800000Y-78000000D03*
X327260000Y-78000000D03*
X324720000Y-78000000D03*
X322180000Y-78000000D03*
X319640000Y-78000000D03*
X317100000Y-78000000D03*
X320193720Y-65833400D03*
X320193720Y-68373400D03*
X320193720Y-70913400D03*
D19*
X347580000Y-62760000D03*
D18*
X347580000Y-78000000D03*
D10*
X256410884Y-165883620D03*
X250060884Y-168423620D03*
D12*
X63600284Y-67475612D03*
D13*
X63600284Y-72555612D03*
D21*
X212438410Y-178122554D03*
X57598608Y-86468030D03*
X254608590Y-121534022D03*
X326390000Y-117830600D03*
X276603576Y-172995640D03*
X333332092Y-169513538D03*
X127275644Y-177842586D03*
X289709578Y-173223114D03*
X104895702Y-124176220D03*
X249954122Y-173205616D03*
X317286426Y-147658536D03*
X275168740Y-121971472D03*
D22*
X237998000Y-65870612D03*
X240017286Y-65318612D03*
M02*
